<svg width="31" height="36" viewBox="0 0 31 36" fill="none" xmlns="http://www.w3.org/2000/svg">
<g filter="url(#filter0_d_91_128)">
<path d="M6.5625 5.75C6.04473 5.75 5.625 6.16973 5.625 6.6875V29.1875C5.625 29.7053 6.04473 30.125 6.5625 30.125H23.4375C23.9553 30.125 24.375 29.7053 24.375 29.1875V6.6875C24.375 6.16973 23.9553 5.75 23.4375 5.75H22.5C21.9822 5.75 21.5625 5.33027 21.5625 4.8125C21.5625 4.29473 21.9822 3.875 22.5 3.875H23.4375C24.9908 3.875 26.25 5.1342 26.25 6.6875V29.1875C26.25 30.7408 24.9908 32 23.4375 32H6.5625C5.0092 32 3.75 30.7408 3.75 29.1875V6.6875C3.75 5.1342 5.0092 3.875 6.5625 3.875H7.5C8.01777 3.875 8.4375 4.29473 8.4375 4.8125C8.4375 5.33027 8.01777 5.75 7.5 5.75H6.5625Z" fill="#239CED"/>
<path d="M18.75 2.9375C18.75 2.41973 18.3303 2 17.8125 2H12.1875C11.6697 2 11.25 2.41973 11.25 2.9375C11.25 3.45527 10.8303 3.875 10.3125 3.875C9.79473 3.875 9.375 4.29473 9.375 4.8125V5.75C9.375 6.26777 9.79473 6.6875 10.3125 6.6875H19.6875C20.2053 6.6875 20.625 6.26777 20.625 5.75V4.8125C20.625 4.29473 20.2053 3.875 19.6875 3.875C19.1697 3.875 18.75 3.45527 18.75 2.9375Z" fill="#239CED"/>
</g>
<defs>
<filter id="filter0_d_91_128" x="-2" y="0" width="36" height="36" filterUnits="userSpaceOnUse" color-interpolation-filters="sRGB">
<feFlood flood-opacity="0" result="BackgroundImageFix"/>
<feColorMatrix in="SourceAlpha" type="matrix" values="0 0 0 0 0 0 0 0 0 0 0 0 0 0 0 0 0 0 127 0" result="hardAlpha"/>
<feOffset dx="1" dy="1"/>
<feGaussianBlur stdDeviation="1.5"/>
<feComposite in2="hardAlpha" operator="out"/>
<feColorMatrix type="matrix" values="0 0 0 0 0 0 0 0 0 0 0 0 0 0 0 0 0 0 0.25 0"/>
<feBlend mode="normal" in2="BackgroundImageFix" result="effect1_dropShadow_91_128"/>
<feBlend mode="normal" in="SourceGraphic" in2="effect1_dropShadow_91_128" result="shape"/>
</filter>
</defs>
</svg>
