<svg width="40" height="30" viewBox="0 0 40 30" fill="none" xmlns="http://www.w3.org/2000/svg">
<path fill-rule="evenodd" clip-rule="evenodd" d="M6.25 21.5625C6.25 21.0447 6.80964 20.625 7.5 20.625H32.5C33.1904 20.625 33.75 21.0447 33.75 21.5625C33.75 22.0803 33.1904 22.5 32.5 22.5H7.5C6.80964 22.5 6.25 22.0803 6.25 21.5625Z" fill="#5E5E5E"/>
<path fill-rule="evenodd" clip-rule="evenodd" d="M6.25 14.0625C6.25 13.5447 6.80964 13.125 7.5 13.125H32.5C33.1904 13.125 33.75 13.5447 33.75 14.0625C33.75 14.5803 33.1904 15 32.5 15H7.5C6.80964 15 6.25 14.5803 6.25 14.0625Z" fill="#5E5E5E"/>
<path fill-rule="evenodd" clip-rule="evenodd" d="M6.25 6.5625C6.25 6.04473 6.80964 5.625 7.5 5.625H32.5C33.1904 5.625 33.75 6.04473 33.75 6.5625C33.75 7.08027 33.1904 7.5 32.5 7.5H7.5C6.80964 7.5 6.25 7.08027 6.25 6.5625Z" fill="#5E5E5E"/>
</svg>
