<svg width="26" height="31" viewBox="0 0 26 31" fill="none" xmlns="http://www.w3.org/2000/svg">
<path d="M5.86842 4.70833C5.44694 4.70833 5.10526 5.05345 5.10526 5.47917V23.9792C5.10526 24.4049 5.44694 24.75 5.86842 24.75H19.6053C20.0267 24.75 20.3684 24.4049 20.3684 23.9792V5.47917C20.3684 5.05345 20.0267 4.70833 19.6053 4.70833H18.8421C18.4206 4.70833 18.0789 4.36322 18.0789 3.9375C18.0789 3.51178 18.4206 3.16667 18.8421 3.16667H19.6053C20.8697 3.16667 21.8947 4.20201 21.8947 5.47917V23.9792C21.8947 25.2563 20.8697 26.2917 19.6053 26.2917H5.86842C4.60398 26.2917 3.57895 25.2563 3.57895 23.9792V5.47917C3.57895 4.20201 4.60398 3.16667 5.86842 3.16667H6.63158C7.05306 3.16667 7.39474 3.51178 7.39474 3.9375C7.39474 4.36322 7.05306 4.70833 6.63158 4.70833H5.86842Z" fill="#239CED"/>
<path d="M15.7895 2.39583C15.7895 1.97011 15.4478 1.625 15.0263 1.625H10.4474C10.0259 1.625 9.68421 1.97011 9.68421 2.39583C9.68421 2.82155 9.34253 3.16667 8.92105 3.16667C8.49957 3.16667 8.1579 3.51178 8.1579 3.9375V4.70833C8.1579 5.13405 8.49957 5.47917 8.92105 5.47917H16.5526C16.9741 5.47917 17.3158 5.13405 17.3158 4.70833V3.9375C17.3158 3.51178 16.9741 3.16667 16.5526 3.16667C16.1312 3.16667 15.7895 2.82155 15.7895 2.39583Z" fill="#239CED"/>
<path d="M19 17.5C22.5899 17.5 25.5 20.4101 25.5 24C25.5 27.5899 22.5899 30.5 19 30.5C15.4101 30.5 12.5 27.5899 12.5 24C12.5 20.4101 15.4101 17.5 19 17.5Z" fill="#239CED" stroke="white" stroke-linejoin="round"/>
<path d="M19 20C19.2761 20 19.5 20.2239 19.5 20.5V23.5H22.5C22.7761 23.5 23 23.7239 23 24C23 24.2761 22.7761 24.5 22.5 24.5H19.5V27.5C19.5 27.7761 19.2761 28 19 28C18.7239 28 18.5 27.7761 18.5 27.5V24.5H15.5C15.2239 24.5 15 24.2761 15 24C15 23.7239 15.2239 23.5 15.5 23.5H18.5V20.5C18.5 20.2239 18.7239 20 19 20Z" fill="white" stroke="white" stroke-width="0.4" stroke-linecap="round"/>
</svg>
