<svg width="29" height="29" viewBox="0 0 29 29" fill="none" xmlns="http://www.w3.org/2000/svg">
<path d="M21.6552 12.8163C22.8755 11.5959 22.8755 9.61725 21.6552 8.39686C20.4348 7.17647 18.4561 7.17647 17.2357 8.39686L9.28079 16.3518C8.54856 17.084 8.54856 18.2712 9.28079 19.0035C10.013 19.7357 11.2002 19.7357 11.9324 19.0035L18.1196 12.8163C18.3637 12.5722 18.3637 12.1765 18.1196 11.9324C17.8755 11.6883 17.4798 11.6883 17.2357 11.9324L11.0486 18.1196C10.8045 18.3637 10.4088 18.3637 10.1647 18.1196C9.9206 17.8755 9.9206 17.4798 10.1647 17.2357L18.1196 9.28074C18.8519 8.54851 20.039 8.54851 20.7713 9.28074C21.5035 10.013 21.5035 11.2002 20.7713 11.9324L12.8163 19.8873C11.5959 21.1077 9.6173 21.1077 8.39691 19.8873C7.17652 18.667 7.17652 16.6883 8.39691 15.4679L14.5841 9.28074C14.8282 9.03666 14.8282 8.64094 14.5841 8.39686C14.34 8.15278 13.9443 8.15278 13.7002 8.39686L7.51302 14.584C5.80448 16.2926 5.80448 19.0627 7.51302 20.7712C9.22157 22.4798 11.9917 22.4798 13.7002 20.7712L21.6552 12.8163Z" fill="#5E5E5E"/>
</svg>
