<svg width="22" height="22" viewBox="0 0 22 22" fill="none" xmlns="http://www.w3.org/2000/svg">
<path d="M1.375 19.25C1.375 19.25 0 19.25 0 17.875C0 16.5 1.375 12.375 6.875 12.375C12.375 12.375 13.75 16.5 13.75 17.875C13.75 19.25 12.375 19.25 12.375 19.25H1.375ZM12.3443 17.875C12.349 17.8744 12.3557 17.8736 12.3638 17.8722C12.3676 17.8716 12.3713 17.8709 12.375 17.8702C12.373 17.5072 12.1456 16.4545 11.331 15.5042C10.5692 14.6154 9.23631 13.75 6.875 13.75C4.51369 13.75 3.18085 14.6154 2.41898 15.5042C1.60445 16.4545 1.377 17.5072 1.37501 17.8702C1.37866 17.8709 1.38239 17.8716 1.38621 17.8722C1.39429 17.8736 1.40096 17.8744 1.40573 17.875H12.3443Z" fill="#5E5E5E"/>
<path d="M6.875 9.625C5.35622 9.625 4.125 8.39378 4.125 6.875C4.125 5.35622 5.35622 4.125 6.875 4.125C8.39378 4.125 9.625 5.35622 9.625 6.875C9.625 8.39378 8.39378 9.625 6.875 9.625ZM2.75 6.875C2.75 9.15317 4.59682 11 6.875 11C9.15317 11 11 9.15317 11 6.875C11 4.59683 9.15317 2.75 6.875 2.75C4.59682 2.75 2.75 4.59683 2.75 6.875Z" fill="#5E5E5E"/>
<path d="M12.4631 12.76C12.9688 12.5982 13.5306 12.4806 14.1539 12.4205C14.4623 12.3907 14.7858 12.375 15.125 12.375C20.625 12.375 22 16.5 22 17.875C22 18.7917 21.5417 19.25 20.625 19.25H14.8275C15.0211 18.8594 15.125 18.3963 15.125 17.875C15.125 16.4859 14.6063 15.0673 13.6265 13.8823C13.2918 13.4774 12.9032 13.0998 12.4631 12.76ZM15.2349 13.7506C16.0565 15.0062 16.5 16.4377 16.5 17.875H20.625C20.625 17.5165 20.3992 16.4587 19.581 15.5042C18.8311 14.6293 17.5278 13.7771 15.2349 13.7506Z" fill="#5E5E5E"/>
<path d="M19.9375 7.5625C19.9375 5.28433 18.0907 3.4375 15.8125 3.4375C13.5343 3.4375 11.6875 5.28433 11.6875 7.5625C11.6875 9.84067 13.5343 11.6875 15.8125 11.6875C18.0907 11.6875 19.9375 9.84067 19.9375 7.5625ZM15.8125 4.8125C17.3313 4.8125 18.5625 6.04372 18.5625 7.5625C18.5625 9.08128 17.3313 10.3125 15.8125 10.3125C14.2937 10.3125 13.0625 9.08128 13.0625 7.5625C13.0625 6.04372 14.2937 4.8125 15.8125 4.8125Z" fill="#5E5E5E"/>
</svg>
