<svg width="23" height="23" viewBox="0 0 23 23" fill="none" xmlns="http://www.w3.org/2000/svg">
<path d="M11.5 12.9375C18.6875 12.9375 20.125 17.25 20.125 18.6875C20.125 20.125 18.6875 20.125 18.6875 20.125H4.3125C4.3125 20.125 2.875 20.125 2.875 18.6875C2.875 17.25 4.3125 12.9375 11.5 12.9375ZM11.5 14.375C8.20942 14.375 6.44641 15.3524 5.50879 16.29C4.53367 17.2652 4.31455 18.3279 4.3125 18.6826H18.6875C18.6855 18.3279 18.4663 17.2652 17.4912 16.29C16.5536 15.3524 14.7906 14.375 11.5 14.375ZM11.5 2.875C13.8817 2.875 15.8125 4.80577 15.8125 7.1875C15.8125 9.56923 13.8817 11.5 11.5 11.5C9.11827 11.5 7.1875 9.56923 7.1875 7.1875C7.1875 4.80577 9.11827 2.875 11.5 2.875ZM11.5 4.3125C9.91218 4.3125 8.625 5.59968 8.625 7.1875C8.625 8.77532 9.91218 10.0625 11.5 10.0625C13.0878 10.0625 14.375 8.77532 14.375 7.1875C14.375 5.59968 13.0878 4.3125 11.5 4.3125Z" fill="#5E5E5E"/>
<path d="M11.5 11.5C13.8817 11.5 15.8125 9.56923 15.8125 7.1875C15.8125 4.80577 13.8817 2.875 11.5 2.875C9.11827 2.875 7.1875 4.80577 7.1875 7.1875C7.1875 9.56923 9.11827 11.5 11.5 11.5ZM14.375 7.1875C14.375 8.77532 13.0878 10.0625 11.5 10.0625C9.91218 10.0625 8.625 8.77532 8.625 7.1875C8.625 5.59968 9.91218 4.3125 11.5 4.3125C13.0878 4.3125 14.375 5.59968 14.375 7.1875Z" fill="#5E5E5E"/>
<path d="M20.125 18.6875C20.125 20.125 18.6875 20.125 18.6875 20.125H4.3125C4.3125 20.125 2.875 20.125 2.875 18.6875C2.875 17.25 4.3125 12.9375 11.5 12.9375C18.6875 12.9375 20.125 17.25 20.125 18.6875ZM18.6875 18.6825C18.6854 18.3277 18.4664 17.265 17.4913 16.2899C16.5537 15.3523 14.7906 14.375 11.5 14.375C8.20939 14.375 6.44626 15.3523 5.50864 16.2899C4.53352 17.265 4.31455 18.3277 4.3125 18.6825H18.6875Z" fill="#5E5E5E"/>
</svg>
