<svg width="24" height="24" viewBox="0 0 24 24" fill="none" xmlns="http://www.w3.org/2000/svg">
<mask id="path-1-inside-1_4_18" fill="white">
<path d="M11.2439 17.7275C12.1771 17.7275 12.8863 18.4375 12.8865 19.3633C12.8865 20.2893 12.1772 21 11.2439 21C10.3356 20.9999 9.61401 20.2892 9.61401 19.3633C9.6142 18.4375 10.3357 17.7276 11.2439 17.7275ZM11.7361 3C15.1111 3.00001 17.3865 5.04127 17.3865 7.82324C17.3864 9.83808 16.3893 11.2553 14.7019 12.2822C13.0529 13.2701 12.5798 13.959 12.5798 15.2979V15.5908C12.5798 15.867 12.356 16.0908 12.0798 16.0908H10.4275C10.1537 16.0908 9.93085 15.8704 9.92749 15.5967L9.92065 15.0508C9.85678 13.2179 10.6371 12.0484 12.3884 10.9824C13.9351 10.0336 14.485 9.27911 14.4851 7.94043C14.4851 6.47145 13.3469 5.39161 11.5955 5.3916C9.99599 5.3916 8.91179 6.27922 8.63745 7.72363C8.58827 7.98196 8.37403 8.18637 8.11108 8.18652H6.4519C6.1683 8.18644 5.93933 7.95056 5.97241 7.66895C6.28965 4.98891 8.25 3 11.7361 3Z"/>
</mask>
<path d="M11.2439 17.7275C12.1771 17.7275 12.8863 18.4375 12.8865 19.3633C12.8865 20.2893 12.1772 21 11.2439 21C10.3356 20.9999 9.61401 20.2892 9.61401 19.3633C9.6142 18.4375 10.3357 17.7276 11.2439 17.7275ZM11.7361 3C15.1111 3.00001 17.3865 5.04127 17.3865 7.82324C17.3864 9.83808 16.3893 11.2553 14.7019 12.2822C13.0529 13.2701 12.5798 13.959 12.5798 15.2979V15.5908C12.5798 15.867 12.356 16.0908 12.0798 16.0908H10.4275C10.1537 16.0908 9.93085 15.8704 9.92749 15.5967L9.92065 15.0508C9.85678 13.2179 10.6371 12.0484 12.3884 10.9824C13.9351 10.0336 14.485 9.27911 14.4851 7.94043C14.4851 6.47145 13.3469 5.39161 11.5955 5.3916C9.99599 5.3916 8.91179 6.27922 8.63745 7.72363C8.58827 7.98196 8.37403 8.18637 8.11108 8.18652H6.4519C6.1683 8.18644 5.93933 7.95056 5.97241 7.66895C6.28965 4.98891 8.25 3 11.7361 3Z" fill="white"/>
<path d="M11.2439 17.7275L11.2439 17.4275L11.2439 17.4275L11.2439 17.7275ZM12.8865 19.3633L13.1865 19.3633L13.1865 19.3632L12.8865 19.3633ZM11.2439 21L11.2439 21.3H11.2439V21ZM9.61401 19.3633L9.31401 19.3632V19.3633H9.61401ZM11.7361 3L11.7361 2.7H11.7361V3ZM17.3865 7.82324L17.6865 7.82326V7.82324H17.3865ZM14.7019 12.2822L14.8561 12.5396L14.8579 12.5385L14.7019 12.2822ZM12.5798 15.2979L12.2798 15.2978V15.2979H12.5798ZM12.0798 16.0908L12.0798 16.3908L12.0798 16.3908L12.0798 16.0908ZM9.92749 15.5967L10.2275 15.593L10.2275 15.5929L9.92749 15.5967ZM9.92065 15.0508L10.2207 15.047L10.2205 15.0403L9.92065 15.0508ZM12.3884 10.9824L12.5444 11.2387L12.5453 11.2381L12.3884 10.9824ZM14.4851 7.94043L14.7851 7.94046V7.94043H14.4851ZM11.5955 5.3916L11.5955 5.0916H11.5955V5.3916ZM8.63745 7.72363L8.93216 7.77974L8.93218 7.77961L8.63745 7.72363ZM8.11108 8.18652L8.11108 8.48652L8.11125 8.48652L8.11108 8.18652ZM6.4519 8.18652L6.45182 8.48652H6.4519V8.18652ZM5.97241 7.66895L5.67449 7.63368L5.67446 7.63395L5.97241 7.66895ZM11.2439 17.7275V18.0275C12.0121 18.0275 12.5863 18.6039 12.5865 19.3633L12.8865 19.3633L13.1865 19.3632C13.1863 18.271 12.342 17.4275 11.2439 17.4275V17.7275ZM12.8865 19.3633H12.5865C12.5865 20.1231 12.012 20.7 11.2439 20.7V21V21.3C12.3423 21.3 13.1865 20.4555 13.1865 19.3633H12.8865ZM11.2439 21L11.2439 20.7C10.5008 20.6999 9.91401 20.1231 9.91401 19.3633H9.61401H9.31401C9.31401 20.4554 10.1704 21.2999 11.2439 21.3L11.2439 21ZM9.61401 19.3633L9.91401 19.3633C9.91416 18.6039 10.5007 18.0276 11.2439 18.0275L11.2439 17.7275L11.2439 17.4275C10.1707 17.4276 9.31423 18.2711 9.31401 19.3632L9.61401 19.3633ZM11.7361 3L11.7361 3.3C13.3638 3.3 14.703 3.79183 15.6305 4.59515C16.5554 5.3962 17.0865 6.51924 17.0865 7.82324H17.3865H17.6865C17.6865 6.34527 17.0799 5.05669 16.0233 4.14161C14.9694 3.22881 13.4834 2.7 11.7361 2.7L11.7361 3ZM17.3865 7.82324L17.0865 7.82323C17.0864 9.71244 16.1634 11.0416 14.5459 12.026L14.7019 12.2822L14.8579 12.5385C16.6153 11.469 17.6864 9.96372 17.6865 7.82326L17.3865 7.82324ZM14.7019 12.2822L14.5477 12.0249C13.7145 12.5241 13.1387 12.9697 12.7768 13.4863C12.406 14.0156 12.2798 14.5894 12.2798 15.2978L12.5798 15.2979L12.8798 15.2979C12.8798 14.6674 12.9902 14.2274 13.2682 13.8306C13.5551 13.421 14.0404 13.0283 14.8561 12.5396L14.7019 12.2822ZM12.5798 15.2979H12.2798V15.5908H12.5798H12.8798V15.2979H12.5798ZM12.5798 15.5908H12.2798C12.2798 15.7013 12.1903 15.7908 12.0798 15.7908L12.0798 16.0908L12.0798 16.3908C12.5216 16.3908 12.8798 16.0327 12.8798 15.5908H12.5798ZM12.0798 16.0908V15.7908H10.4275V16.0908V16.3908H12.0798V16.0908ZM10.4275 16.0908V15.7908C10.3182 15.7908 10.2288 15.7027 10.2275 15.593L9.92749 15.5967L9.62751 15.6004C9.63289 16.0381 9.9893 16.3908 10.4275 16.3908V16.0908ZM9.92749 15.5967L10.2275 15.5929L10.2206 15.047L9.92065 15.0508L9.62068 15.0545L9.62751 15.6004L9.92749 15.5967ZM9.92065 15.0508L10.2205 15.0403C10.1902 14.1719 10.3596 13.4824 10.7288 12.8871C11.101 12.2868 11.6914 11.7579 12.5444 11.2387L12.3884 10.9824L12.2325 10.7262C11.3341 11.2729 10.6586 11.8617 10.2189 12.5709C9.77603 13.285 9.58723 14.0968 9.62084 15.0612L9.92065 15.0508ZM12.3884 10.9824L12.5453 11.2381C13.3302 10.7566 13.8964 10.3047 14.2628 9.77917C14.6366 9.24306 14.785 8.65585 14.7851 7.94046L14.4851 7.94043L14.1851 7.9404C14.185 8.56369 14.0585 9.02305 13.7706 9.43604C13.4753 9.85961 12.9933 10.2594 12.2315 10.7267L12.3884 10.9824ZM14.4851 7.94043H14.7851C14.7851 7.12445 14.4671 6.40504 13.8979 5.89226C13.3306 5.3812 12.5327 5.09161 11.5955 5.0916L11.5955 5.3916L11.5955 5.6916C12.4096 5.69161 13.0566 5.94193 13.4963 6.33804C13.934 6.73242 14.1851 7.28742 14.1851 7.94043H14.4851ZM11.5955 5.3916V5.0916C10.7396 5.0916 9.99957 5.32973 9.43262 5.7813C8.86481 6.23357 8.49169 6.88334 8.34272 7.66765L8.63745 7.72363L8.93218 7.77961C9.05756 7.11951 9.3637 6.60327 9.80644 6.25062C10.25 5.89729 10.8518 5.6916 11.5955 5.6916V5.3916ZM8.63745 7.72363L8.34274 7.66753C8.31634 7.80623 8.20875 7.88647 8.11091 7.88652L8.11108 8.18652L8.11125 8.48652C8.5393 8.48628 8.86021 8.15768 8.93216 7.77974L8.63745 7.72363ZM8.11108 8.18652V7.88652H6.4519V8.18652V8.48652H8.11108V8.18652ZM6.4519 8.18652L6.45199 7.88652C6.33095 7.88649 6.26016 7.79083 6.27036 7.70394L5.97241 7.66895L5.67446 7.63395C5.61851 8.11029 6.00564 8.48639 6.45182 8.48652L6.4519 8.18652ZM5.97241 7.66895L6.27033 7.70421C6.42134 6.42848 6.96046 5.33362 7.8618 4.55669C8.76316 3.77975 10.051 3.3 11.7361 3.3V3V2.7C9.93505 2.7 8.49971 3.2147 7.47006 4.10222C6.4404 4.98976 5.84072 6.22938 5.67449 7.63368L5.97241 7.66895Z" fill="#239CED" mask="url(#path-1-inside-1_4_18)"/>
</svg>
