<svg width="16" height="16" viewBox="0 0 16 16" fill="none" xmlns="http://www.w3.org/2000/svg">
<path d="M4.25784 10.3439C3.46708 9.2673 3 7.9382 3 6.5C3 2.91015 5.91015 0 9.5 0C13.0899 0 16 2.91015 16 6.5C16 10.0899 13.0899 13 9.5 13C8.06142 13 6.73199 12.5327 5.65525 11.7415L5.65611 11.7422C5.62662 11.7822 5.59377 11.8204 5.55757 11.8566L1.7071 15.7071C1.31658 16.0976 0.683414 16.0976 0.292891 15.7071C-0.0976334 15.3166 -0.0976334 14.6834 0.292891 14.2929L4.14335 10.4424C4.17956 10.4062 4.21785 10.3734 4.25784 10.3439ZM4 6.5C4 9.53757 6.46243 12 9.5 12C12.5376 12 15 9.53757 15 6.5C15 3.46243 12.5376 1 9.5 1C6.46243 1 4 3.46243 4 6.5Z" fill="#239CED"/>
</svg>
