<svg width="20" height="20" viewBox="0 0 20 20" fill="none" xmlns="http://www.w3.org/2000/svg">
<rect width="20" height="20" fill="white"/>
<path d="M3.58262 18.5634C3.48537 19.1178 4.03233 19.5517 4.51538 19.3034L10.0019 16.4835L15.4884 19.3034C15.9715 19.5517 16.5184 19.1178 16.4212 18.5634L15.384 12.6516L19.787 8.45578C20.1984 8.06366 19.9854 7.34671 19.4342 7.2684L13.3111 6.39856L10.5809 0.990381C10.335 0.503206 9.6688 0.503206 9.42287 0.990381L6.69272 6.39856L0.569622 7.2684C0.0183857 7.34671 -0.194614 8.06366 0.216861 8.45578L4.61978 12.6516L3.58262 18.5634ZM9.71337 15.1033L5.10618 17.4712L5.974 12.5246C6.01491 12.2915 5.93799 12.0527 5.77057 11.8931L2.13702 8.4305L7.2024 7.71092C7.4118 7.68117 7.59463 7.54743 7.69341 7.35176L10.0019 2.77884L12.3104 7.35176C12.4092 7.54743 12.592 7.68117 12.8014 7.71092L17.8668 8.4305L14.2332 11.8931C14.0658 12.0527 13.9889 12.2915 14.0298 12.5246L14.8976 17.4712L10.2904 15.1033C10.1085 15.0097 9.89536 15.0097 9.71337 15.1033Z" fill="#5E5E5E"/>
</svg>
