<svg width="32" height="32" viewBox="0 0 32 32" fill="none" xmlns="http://www.w3.org/2000/svg">
<path d="M16 0.150391C24.7537 0.150391 31.8496 7.24629 31.8496 16C31.8496 24.7537 24.7537 31.8496 16 31.8496C7.24629 31.8496 0.150391 24.7537 0.150391 16C0.150391 7.24629 7.24629 0.150391 16 0.150391ZM16 1.84961C8.18517 1.84961 1.84961 8.18517 1.84961 16C1.84961 19.342 3.00869 22.4139 4.94629 24.835L5.0791 25.001L5.19141 24.8203C6.58219 22.5801 9.65318 20.1504 16 20.1504C22.3468 20.1504 25.4178 22.5801 26.8086 24.8203L26.9209 25.001L27.0537 24.835C28.9913 22.4139 30.1504 19.342 30.1504 16C30.1504 8.18517 23.8148 1.84961 16 1.84961ZM16 6.15039C19.2309 6.15039 21.8496 8.76913 21.8496 12C21.8496 15.2309 19.2309 17.8496 16 17.8496C12.7691 17.8496 10.1504 15.2309 10.1504 12C10.1504 8.76913 12.7691 6.15039 16 6.15039Z" fill="white" stroke="#239CED" stroke-width="0.3"/>
</svg>
