<svg width="20" height="20" viewBox="0 0 20 20" fill="none" xmlns="http://www.w3.org/2000/svg">
<path fill-rule="evenodd" clip-rule="evenodd" d="M10 0C10.4602 0 10.8333 0.373096 10.8333 0.833333V9.16667H19.1667C19.6269 9.16667 20 9.53976 20 10C20 10.4602 19.6269 10.8333 19.1667 10.8333H10.8333V19.1667C10.8333 19.6269 10.4602 20 10 20C9.53976 20 9.16667 19.6269 9.16667 19.1667V10.8333H0.833333C0.373096 10.8333 0 10.4602 0 10C0 9.53976 0.373096 9.16667 0.833333 9.16667H9.16667V0.833333C9.16667 0.373096 9.53976 0 10 0Z" fill="#239CED"/>
</svg>
